<mxfile host="app.diagrams.net" modified="2024-07-15T10:41:11.348Z" agent="Mozilla/5.0 (Windows NT 10.0; Win64; x64; rv:128.0) Gecko/20100101 Firefox/128.0" etag="hyjCh9I2SPApY2WZtJD9" version="24.6.3" type="github">
  <diagram name="Страница — 1" id="hZCQEBm-Uqdyc_hpwsWO">
    <mxGraphModel dx="2440" dy="2171" grid="1" gridSize="10" guides="1" tooltips="1" connect="1" arrows="1" fold="1" page="1" pageScale="1" pageWidth="1169" pageHeight="827" math="0" shadow="0">
      <root>
        <mxCell id="0" />
        <mxCell id="1" parent="0" />
        <mxCell id="TebHabweQv4qruyqAm1s-60" value="" style="whiteSpace=wrap;html=1;aspect=fixed;" vertex="1" parent="1">
          <mxGeometry x="210" y="830" width="430" height="430" as="geometry" />
        </mxCell>
        <mxCell id="TebHabweQv4qruyqAm1s-1" value="Web user" style="shape=umlActor;verticalLabelPosition=bottom;verticalAlign=top;html=1;" vertex="1" parent="1">
          <mxGeometry x="70" y="130" width="30" height="60" as="geometry" />
        </mxCell>
        <mxCell id="TebHabweQv4qruyqAm1s-3" value="Registered user" style="shape=umlActor;verticalLabelPosition=bottom;verticalAlign=top;html=1;" vertex="1" parent="1">
          <mxGeometry x="190" y="40" width="30" height="60" as="geometry" />
        </mxCell>
        <mxCell id="TebHabweQv4qruyqAm1s-4" value="Unregistered user" style="shape=umlActor;verticalLabelPosition=bottom;verticalAlign=top;html=1;" vertex="1" parent="1">
          <mxGeometry x="180" y="225" width="30" height="60" as="geometry" />
        </mxCell>
        <mxCell id="TebHabweQv4qruyqAm1s-9" value="" style="endArrow=block;dashed=1;endFill=0;endSize=12;html=1;rounded=0;exitX=0.76;exitY=0.003;exitDx=0;exitDy=0;exitPerimeter=0;" edge="1" parent="1" source="TebHabweQv4qruyqAm1s-1" target="TebHabweQv4qruyqAm1s-3">
          <mxGeometry width="160" relative="1" as="geometry">
            <mxPoint x="190" y="150" as="sourcePoint" />
            <mxPoint x="350" y="150" as="targetPoint" />
          </mxGeometry>
        </mxCell>
        <mxCell id="TebHabweQv4qruyqAm1s-10" value="" style="endArrow=block;dashed=1;endFill=0;endSize=12;html=1;rounded=0;exitX=1;exitY=1;exitDx=0;exitDy=0;exitPerimeter=0;" edge="1" parent="1" source="TebHabweQv4qruyqAm1s-1" target="TebHabweQv4qruyqAm1s-4">
          <mxGeometry width="160" relative="1" as="geometry">
            <mxPoint x="190" y="150" as="sourcePoint" />
            <mxPoint x="350" y="150" as="targetPoint" />
          </mxGeometry>
        </mxCell>
        <mxCell id="TebHabweQv4qruyqAm1s-11" value="Make purchase" style="ellipse;whiteSpace=wrap;html=1;" vertex="1" parent="1">
          <mxGeometry x="280" y="215" width="140" height="70" as="geometry" />
        </mxCell>
        <mxCell id="TebHabweQv4qruyqAm1s-12" value="View items" style="ellipse;whiteSpace=wrap;html=1;" vertex="1" parent="1">
          <mxGeometry x="320" y="-20" width="140" height="70" as="geometry" />
        </mxCell>
        <mxCell id="TebHabweQv4qruyqAm1s-13" value="Checkout" style="ellipse;whiteSpace=wrap;html=1;" vertex="1" parent="1">
          <mxGeometry x="330" y="100" width="140" height="70" as="geometry" />
        </mxCell>
        <mxCell id="TebHabweQv4qruyqAm1s-14" value="Registration" style="ellipse;whiteSpace=wrap;html=1;" vertex="1" parent="1">
          <mxGeometry x="350" y="540" width="140" height="70" as="geometry" />
        </mxCell>
        <mxCell id="TebHabweQv4qruyqAm1s-19" value="" style="endArrow=open;endFill=1;endSize=12;html=1;rounded=0;entryX=0;entryY=1;entryDx=0;entryDy=0;" edge="1" parent="1" source="TebHabweQv4qruyqAm1s-4" target="TebHabweQv4qruyqAm1s-12">
          <mxGeometry width="160" relative="1" as="geometry">
            <mxPoint x="70" y="90" as="sourcePoint" />
            <mxPoint x="230" y="90" as="targetPoint" />
          </mxGeometry>
        </mxCell>
        <mxCell id="TebHabweQv4qruyqAm1s-20" value="" style="endArrow=open;endFill=1;endSize=12;html=1;rounded=0;entryX=0;entryY=0.429;entryDx=0;entryDy=0;entryPerimeter=0;" edge="1" parent="1" source="TebHabweQv4qruyqAm1s-4" target="TebHabweQv4qruyqAm1s-14">
          <mxGeometry width="160" relative="1" as="geometry">
            <mxPoint x="70" y="90" as="sourcePoint" />
            <mxPoint x="230" y="90" as="targetPoint" />
          </mxGeometry>
        </mxCell>
        <mxCell id="TebHabweQv4qruyqAm1s-21" value="" style="endArrow=open;endFill=1;endSize=12;html=1;rounded=0;entryX=0;entryY=0.5;entryDx=0;entryDy=0;" edge="1" parent="1" source="TebHabweQv4qruyqAm1s-3" target="TebHabweQv4qruyqAm1s-12">
          <mxGeometry width="160" relative="1" as="geometry">
            <mxPoint x="220" y="40" as="sourcePoint" />
            <mxPoint x="380" y="40" as="targetPoint" />
          </mxGeometry>
        </mxCell>
        <mxCell id="TebHabweQv4qruyqAm1s-22" value="" style="endArrow=block;dashed=1;endFill=0;endSize=12;html=1;rounded=0;exitX=0.5;exitY=1;exitDx=0;exitDy=0;entryX=0.429;entryY=0.022;entryDx=0;entryDy=0;entryPerimeter=0;" edge="1" parent="1" source="TebHabweQv4qruyqAm1s-12" target="TebHabweQv4qruyqAm1s-13">
          <mxGeometry width="160" relative="1" as="geometry">
            <mxPoint x="70" y="90" as="sourcePoint" />
            <mxPoint x="230" y="90" as="targetPoint" />
          </mxGeometry>
        </mxCell>
        <mxCell id="TebHabweQv4qruyqAm1s-23" value="" style="endArrow=block;dashed=1;endFill=0;endSize=12;html=1;rounded=0;exitX=0.892;exitY=0.836;exitDx=0;exitDy=0;entryX=1;entryY=0;entryDx=0;entryDy=0;exitPerimeter=0;" edge="1" parent="1" source="TebHabweQv4qruyqAm1s-13" target="TebHabweQv4qruyqAm1s-14">
          <mxGeometry width="160" relative="1" as="geometry">
            <mxPoint x="70" y="90" as="sourcePoint" />
            <mxPoint x="230" y="90" as="targetPoint" />
            <Array as="points">
              <mxPoint x="560" y="290" />
            </Array>
          </mxGeometry>
        </mxCell>
        <mxCell id="TebHabweQv4qruyqAm1s-24" value="" style="endArrow=block;dashed=1;endFill=0;endSize=12;html=1;rounded=0;exitX=0.5;exitY=1;exitDx=0;exitDy=0;entryX=0.5;entryY=0;entryDx=0;entryDy=0;" edge="1" parent="1" source="TebHabweQv4qruyqAm1s-13" target="TebHabweQv4qruyqAm1s-11">
          <mxGeometry width="160" relative="1" as="geometry">
            <mxPoint x="70" y="90" as="sourcePoint" />
            <mxPoint x="230" y="90" as="targetPoint" />
          </mxGeometry>
        </mxCell>
        <mxCell id="TebHabweQv4qruyqAm1s-25" value="Authenication" style="shape=umlActor;verticalLabelPosition=bottom;verticalAlign=top;html=1;" vertex="1" parent="1">
          <mxGeometry x="650" y="90" width="30" height="60" as="geometry" />
        </mxCell>
        <mxCell id="TebHabweQv4qruyqAm1s-26" value="" style="endArrow=open;endFill=1;endSize=12;html=1;rounded=0;exitX=1.024;exitY=0.489;exitDx=0;exitDy=0;exitPerimeter=0;startArrow=open;startFill=0;" edge="1" parent="1" source="TebHabweQv4qruyqAm1s-13" target="TebHabweQv4qruyqAm1s-25">
          <mxGeometry width="160" relative="1" as="geometry">
            <mxPoint x="240" y="120" as="sourcePoint" />
            <mxPoint x="400" y="120" as="targetPoint" />
          </mxGeometry>
        </mxCell>
        <mxCell id="TebHabweQv4qruyqAm1s-27" value="" style="endArrow=open;endFill=1;endSize=12;html=1;rounded=0;exitX=1.004;exitY=0.462;exitDx=0;exitDy=0;exitPerimeter=0;" edge="1" parent="1" source="TebHabweQv4qruyqAm1s-14" target="TebHabweQv4qruyqAm1s-25">
          <mxGeometry width="160" relative="1" as="geometry">
            <mxPoint x="240" y="120" as="sourcePoint" />
            <mxPoint x="400" y="120" as="targetPoint" />
          </mxGeometry>
        </mxCell>
        <mxCell id="TebHabweQv4qruyqAm1s-28" value="Admin" style="shape=umlActor;verticalLabelPosition=bottom;verticalAlign=top;html=1;" vertex="1" parent="1">
          <mxGeometry x="80" y="810" width="30" height="60" as="geometry" />
        </mxCell>
        <mxCell id="TebHabweQv4qruyqAm1s-46" value="" style="endArrow=open;endFill=1;endSize=12;html=1;rounded=0;startArrow=none;startFill=0;" edge="1" parent="1" source="TebHabweQv4qruyqAm1s-28" target="TebHabweQv4qruyqAm1s-47">
          <mxGeometry width="160" relative="1" as="geometry">
            <mxPoint x="100" y="750" as="sourcePoint" />
            <mxPoint x="260" y="750" as="targetPoint" />
          </mxGeometry>
        </mxCell>
        <mxCell id="TebHabweQv4qruyqAm1s-47" value="Authentication" style="ellipse;whiteSpace=wrap;html=1;" vertex="1" parent="1">
          <mxGeometry x="320" y="730" width="140" height="70" as="geometry" />
        </mxCell>
        <mxCell id="TebHabweQv4qruyqAm1s-48" value="add items" style="ellipse;whiteSpace=wrap;html=1;" vertex="1" parent="1">
          <mxGeometry x="240" y="920" width="140" height="70" as="geometry" />
        </mxCell>
        <mxCell id="TebHabweQv4qruyqAm1s-49" value="make reservation" style="ellipse;whiteSpace=wrap;html=1;" vertex="1" parent="1">
          <mxGeometry x="300" y="830" width="140" height="70" as="geometry" />
        </mxCell>
        <mxCell id="TebHabweQv4qruyqAm1s-50" value="update items" style="ellipse;whiteSpace=wrap;html=1;" vertex="1" parent="1">
          <mxGeometry x="260" y="1090" width="140" height="70" as="geometry" />
        </mxCell>
        <mxCell id="TebHabweQv4qruyqAm1s-51" value="remove items" style="ellipse;whiteSpace=wrap;html=1;" vertex="1" parent="1">
          <mxGeometry x="400" y="890" width="140" height="70" as="geometry" />
        </mxCell>
        <mxCell id="TebHabweQv4qruyqAm1s-52" value="finditems by filters" style="ellipse;whiteSpace=wrap;html=1;" vertex="1" parent="1">
          <mxGeometry x="220" y="1171" width="140" height="70" as="geometry" />
        </mxCell>
        <mxCell id="TebHabweQv4qruyqAm1s-53" value="remove reservation" style="ellipse;whiteSpace=wrap;html=1;" vertex="1" parent="1">
          <mxGeometry x="230" y="1000" width="140" height="70" as="geometry" />
        </mxCell>
        <mxCell id="TebHabweQv4qruyqAm1s-54" value="Reservation items" style="ellipse;whiteSpace=wrap;html=1;" vertex="1" parent="1">
          <mxGeometry x="290" y="390" width="140" height="70" as="geometry" />
        </mxCell>
        <mxCell id="TebHabweQv4qruyqAm1s-55" value="Pay" style="ellipse;whiteSpace=wrap;html=1;" vertex="1" parent="1">
          <mxGeometry x="390" y="300" width="140" height="70" as="geometry" />
        </mxCell>
        <mxCell id="TebHabweQv4qruyqAm1s-56" value="" style="endArrow=block;dashed=1;endFill=0;endSize=12;html=1;rounded=0;exitX=0.214;exitY=0.929;exitDx=0;exitDy=0;exitPerimeter=0;startArrow=block;startFill=0;" edge="1" parent="1" source="TebHabweQv4qruyqAm1s-11" target="TebHabweQv4qruyqAm1s-54">
          <mxGeometry width="160" relative="1" as="geometry">
            <mxPoint x="50" y="400" as="sourcePoint" />
            <mxPoint x="210" y="400" as="targetPoint" />
          </mxGeometry>
        </mxCell>
        <mxCell id="TebHabweQv4qruyqAm1s-57" value="" style="endArrow=block;dashed=1;endFill=0;endSize=12;html=1;rounded=0;exitX=0.722;exitY=0.951;exitDx=0;exitDy=0;exitPerimeter=0;startArrow=none;startFill=0;entryX=0.5;entryY=0;entryDx=0;entryDy=0;" edge="1" parent="1" source="TebHabweQv4qruyqAm1s-11" target="TebHabweQv4qruyqAm1s-55">
          <mxGeometry width="160" relative="1" as="geometry">
            <mxPoint x="320" y="290" as="sourcePoint" />
            <mxPoint x="358" y="401" as="targetPoint" />
          </mxGeometry>
        </mxCell>
        <mxCell id="TebHabweQv4qruyqAm1s-58" value="" style="endArrow=block;dashed=1;endFill=0;endSize=12;html=1;rounded=0;startArrow=none;startFill=0;entryX=0.5;entryY=1;entryDx=0;entryDy=0;" edge="1" parent="1" source="TebHabweQv4qruyqAm1s-54" target="TebHabweQv4qruyqAm1s-55">
          <mxGeometry width="160" relative="1" as="geometry">
            <mxPoint x="391" y="292" as="sourcePoint" />
            <mxPoint x="470" y="310" as="targetPoint" />
          </mxGeometry>
        </mxCell>
        <mxCell id="TebHabweQv4qruyqAm1s-61" value="" style="endArrow=open;endFill=1;endSize=12;html=1;rounded=0;exitX=0.5;exitY=1;exitDx=0;exitDy=0;entryX=0.42;entryY=0;entryDx=0;entryDy=0;entryPerimeter=0;" edge="1" parent="1" source="TebHabweQv4qruyqAm1s-47" target="TebHabweQv4qruyqAm1s-60">
          <mxGeometry width="160" relative="1" as="geometry">
            <mxPoint x="50" y="910" as="sourcePoint" />
            <mxPoint x="210" y="910" as="targetPoint" />
          </mxGeometry>
        </mxCell>
        <mxCell id="TebHabweQv4qruyqAm1s-62" value="" style="endArrow=block;dashed=1;endFill=0;endSize=12;html=1;rounded=0;exitX=0.908;exitY=0.882;exitDx=0;exitDy=0;exitPerimeter=0;entryX=0;entryY=0.5;entryDx=0;entryDy=0;" edge="1" parent="1" source="TebHabweQv4qruyqAm1s-28" target="TebHabweQv4qruyqAm1s-49">
          <mxGeometry width="160" relative="1" as="geometry">
            <mxPoint x="50" y="910" as="sourcePoint" />
            <mxPoint x="210" y="910" as="targetPoint" />
          </mxGeometry>
        </mxCell>
        <mxCell id="TebHabweQv4qruyqAm1s-63" value="" style="endArrow=block;dashed=1;endFill=0;endSize=12;html=1;rounded=0;exitX=0.722;exitY=0.951;exitDx=0;exitDy=0;exitPerimeter=0;startArrow=none;startFill=0;entryX=0;entryY=0.5;entryDx=0;entryDy=0;" edge="1" parent="1" target="TebHabweQv4qruyqAm1s-48">
          <mxGeometry width="160" relative="1" as="geometry">
            <mxPoint x="111" y="870" as="sourcePoint" />
            <mxPoint x="190" y="888" as="targetPoint" />
          </mxGeometry>
        </mxCell>
        <mxCell id="TebHabweQv4qruyqAm1s-64" value="" style="endArrow=block;dashed=1;endFill=0;endSize=12;html=1;rounded=0;exitX=0.722;exitY=0.951;exitDx=0;exitDy=0;exitPerimeter=0;startArrow=none;startFill=0;entryX=0;entryY=0.5;entryDx=0;entryDy=0;" edge="1" parent="1" target="TebHabweQv4qruyqAm1s-51">
          <mxGeometry width="160" relative="1" as="geometry">
            <mxPoint x="110" y="870" as="sourcePoint" />
            <mxPoint x="189" y="888" as="targetPoint" />
          </mxGeometry>
        </mxCell>
        <mxCell id="TebHabweQv4qruyqAm1s-65" value="" style="endArrow=block;dashed=1;endFill=0;endSize=12;html=1;rounded=0;exitX=1;exitY=1;exitDx=0;exitDy=0;exitPerimeter=0;startArrow=none;startFill=0;entryX=0;entryY=0.5;entryDx=0;entryDy=0;" edge="1" parent="1" source="TebHabweQv4qruyqAm1s-28" target="TebHabweQv4qruyqAm1s-50">
          <mxGeometry width="160" relative="1" as="geometry">
            <mxPoint x="13.840000000000003" y="940" as="sourcePoint" />
            <mxPoint x="289.9999999999999" y="1101.2399999999998" as="targetPoint" />
          </mxGeometry>
        </mxCell>
        <mxCell id="TebHabweQv4qruyqAm1s-66" value="" style="endArrow=block;dashed=1;endFill=0;endSize=12;html=1;rounded=0;startArrow=none;startFill=0;entryX=0.106;entryY=0.165;entryDx=0;entryDy=0;entryPerimeter=0;" edge="1" parent="1" source="TebHabweQv4qruyqAm1s-28" target="TebHabweQv4qruyqAm1s-52">
          <mxGeometry width="160" relative="1" as="geometry">
            <mxPoint x="60" y="1000" as="sourcePoint" />
            <mxPoint x="139" y="1018" as="targetPoint" />
          </mxGeometry>
        </mxCell>
        <mxCell id="TebHabweQv4qruyqAm1s-67" value="" style="endArrow=block;dashed=1;endFill=0;endSize=12;html=1;rounded=0;startArrow=none;startFill=0;entryX=0.044;entryY=0.323;entryDx=0;entryDy=0;entryPerimeter=0;" edge="1" parent="1" target="TebHabweQv4qruyqAm1s-53">
          <mxGeometry width="160" relative="1" as="geometry">
            <mxPoint x="110" y="870" as="sourcePoint" />
            <mxPoint x="520" y="360" as="targetPoint" />
          </mxGeometry>
        </mxCell>
      </root>
    </mxGraphModel>
  </diagram>
</mxfile>
